<svg width="135" height="118" viewBox="0 0 135 118" fill="none" xmlns="http://www.w3.org/2000/svg">
<path d="M62.5933 118C94.4757 118 120.321 116.991 120.321 115.747C120.321 114.502 94.4757 113.494 62.5933 113.494C30.711 113.494 4.86523 114.502 4.86523 115.747C4.86523 116.991 30.711 118 62.5933 118Z" fill="#CBE2F6"/>
<path d="M115.492 91.2638H5.40191C2.43062 91.2638 0 88.8289 0 85.8523V5.41151C0 2.43494 2.43062 0 5.40191 0H115.492C118.464 0 120.894 2.43494 120.894 5.41151V85.8523C120.894 88.8289 118.464 91.2638 115.492 91.2638Z" fill="#3490DC"/>
<path d="M112.114 83.6521H8.25591C5.28462 83.6521 2.854 81.2172 2.854 78.2406V9.38111C2.854 6.40454 5.28462 3.9696 8.25591 3.9696H112.114C115.085 3.9696 117.516 6.40454 117.516 9.38111V78.2406C117.517 81.216 115.087 83.6521 112.114 83.6521Z" fill="#CBE2F6"/>
<path d="M66.8333 87.1018H58.3544C58.1477 87.1018 57.9795 86.9321 57.9795 86.7262C57.9795 86.5192 58.1489 86.3507 58.3544 86.3507H66.8333C67.0399 86.3507 67.2082 86.5204 67.2082 86.7262C67.2082 86.9321 67.0387 87.1018 66.8333 87.1018Z" fill="#E3E5FC"/>
<path d="M6.4494 3.06563C6.91523 3.06563 7.29285 2.68733 7.29285 2.22068C7.29285 1.75403 6.91523 1.37573 6.4494 1.37573C5.98358 1.37573 5.60596 1.75403 5.60596 2.22068C5.60596 2.68733 5.98358 3.06563 6.4494 3.06563Z" fill="#E3E5FC"/>
<path d="M10.0822 3.06563C10.548 3.06563 10.9257 2.68733 10.9257 2.22068C10.9257 1.75403 10.548 1.37573 10.0822 1.37573C9.61639 1.37573 9.23877 1.75403 9.23877 2.22068C9.23877 2.68733 9.61639 3.06563 10.0822 3.06563Z" fill="white"/>
<path d="M13.7458 3.06563C14.2116 3.06563 14.5892 2.68733 14.5892 2.22068C14.5892 1.75403 14.2116 1.37573 13.7458 1.37573C13.28 1.37573 12.9023 1.75403 12.9023 2.22068C12.9023 2.68733 13.28 3.06563 13.7458 3.06563Z" fill="#4B369D"/>
<path d="M101.546 50.1286H80.987C80.4355 50.1286 79.9838 49.676 79.9838 49.1236C79.9838 48.5711 80.4355 48.1185 80.987 48.1185H101.546C102.097 48.1185 102.549 48.5711 102.549 49.1236C102.548 49.676 102.097 50.1286 101.546 50.1286Z" fill="white"/>
<path d="M101.545 54.7288H80.9866C80.4352 54.7288 79.9834 54.2762 79.9834 53.7238C79.9834 53.1713 80.4352 52.7188 80.9866 52.7188H101.545C102.097 52.7188 102.549 53.1713 102.549 53.7238C102.547 54.2774 102.097 54.7288 101.545 54.7288Z" fill="white"/>
<path d="M101.545 59.3304H80.9866C80.4352 59.3304 79.9834 58.8778 79.9834 58.3253C79.9834 57.7729 80.4352 57.3203 80.9866 57.3203H101.545C102.097 57.3203 102.549 57.7729 102.549 58.3253C102.547 58.8778 102.097 59.3304 101.545 59.3304Z" fill="white"/>
<path d="M101.545 64.5168H80.9866C80.4352 64.5168 79.9834 64.0642 79.9834 63.5117C79.9834 62.9593 80.4352 62.5067 80.9866 62.5067H101.545C102.097 62.5067 102.549 62.9593 102.549 63.5117C102.547 64.0654 102.097 64.5168 101.545 64.5168Z" fill="white"/>
<path d="M101.545 69.1182H80.9866C80.4352 69.1182 79.9834 68.6656 79.9834 68.1132C79.9834 67.5607 80.4352 67.1082 80.9866 67.1082H101.545C102.097 67.1082 102.549 67.5607 102.549 68.1132C102.547 68.6656 102.097 69.1182 101.545 69.1182Z" fill="white"/>
<path d="M101.545 73.7197H80.9866C80.4352 73.7197 79.9834 73.2671 79.9834 72.7146C79.9834 72.1622 80.4352 71.7096 80.9866 71.7096H101.545C102.097 71.7096 102.549 72.1622 102.549 72.7146C102.547 73.2671 102.097 73.7197 101.545 73.7197Z" fill="white"/>
<path d="M18.3057 38.2368H60.8289C63.8002 38.2368 66.2308 35.8019 66.2308 32.8253V17.4309C66.2308 14.4543 63.8002 12.0194 60.8289 12.0194H18.3057C15.3344 12.0194 12.9038 14.4543 12.9038 17.4309V32.8253C12.9026 35.8019 15.3332 38.2368 18.3057 38.2368Z" fill="white"/>
<path d="M14.0622 73.733V73.733C13.5071 73.733 13.0518 73.278 13.0518 72.7208V49.4462C13.0518 48.8901 13.5059 48.434 14.0622 48.434V48.434C14.6173 48.434 15.0727 48.8889 15.0727 49.4462V72.7208C15.0727 73.278 14.6173 73.733 14.0622 73.733Z" fill="#E3342F"/>
<path d="M18.9001 73.733V73.733C18.345 73.733 17.8896 73.278 17.8896 72.7207V62.3346C17.8896 61.7786 18.3438 61.3224 18.9001 61.3224V61.3224C19.4552 61.3224 19.9106 61.7774 19.9106 62.3346V72.7207C19.9106 73.278 19.4552 73.733 18.9001 73.733Z" fill="#E3342F"/>
<path d="M23.739 73.733V73.733C23.1839 73.733 22.7285 73.278 22.7285 72.7207V52.4288C22.7285 51.8727 23.1827 51.4165 23.739 51.4165V51.4165C24.2941 51.4165 24.7494 51.8715 24.7494 52.4288V72.7207C24.7482 73.278 24.2941 73.733 23.739 73.733Z" fill="#E3342F"/>
<path d="M28.5764 73.733V73.733C28.0213 73.733 27.5659 73.2781 27.5659 72.7208V65.2643C27.5659 64.7082 28.0201 64.2521 28.5764 64.2521V64.2521C29.1315 64.2521 29.5868 64.707 29.5868 65.2643V72.7208C29.5868 73.2781 29.1327 73.733 28.5764 73.733Z" fill="#E3342F"/>
<path d="M33.4148 73.7329V73.7329C32.8597 73.7329 32.4043 73.2779 32.4043 72.7206V60.1512C32.4043 59.5951 32.8585 59.1389 33.4148 59.1389V59.1389C33.9698 59.1389 34.4252 59.5939 34.4252 60.1512V72.7206C34.4252 73.2779 33.971 73.7329 33.4148 73.7329Z" fill="#E3342F"/>
<path d="M38.2531 73.733V73.733C37.698 73.733 37.2427 73.278 37.2427 72.7208V68.9967C37.2427 68.4407 37.6968 67.9845 38.2531 67.9845V67.9845C38.8082 67.9845 39.2636 68.4395 39.2636 68.9967V72.7208C39.2636 73.278 38.8082 73.733 38.2531 73.733Z" fill="#E3342F"/>
<path d="M19.8248 30.2941C22.6784 34.2288 28.1752 35.1014 32.1017 32.2428L21.7689 17.9955C17.8424 20.8529 16.9713 26.3595 19.8248 30.2941Z" fill="#55A8EC"/>
<path d="M22.6938 17.3215L27.4277 23.8487L34.0696 19.015C31.3758 15.451 26.3212 14.6819 22.6938 17.3215Z" fill="#55A8EC"/>
<path d="M37.155 18.4576C37.1117 18.3975 37.0613 18.3445 37.0168 18.2855L28.0981 24.7755L34.7136 33.8978C39.6445 30.3086 40.7366 23.3961 37.155 18.4576Z" fill="#FDC510"/>
<path d="M44.6226 18.8032C44.6226 18.2146 45.1032 17.7319 45.6919 17.7319H60.0317C60.6192 17.7319 61.101 18.2134 61.101 18.8032C61.101 19.3917 60.6204 19.8744 60.0317 19.8744H45.6919C45.1032 19.8744 44.6226 19.3917 44.6226 18.8032Z" fill="#FDC510"/>
<path d="M44.6226 23.9329C44.6226 23.3443 45.1032 22.8617 45.6919 22.8617H50.5543C51.1419 22.8617 51.6237 23.3431 51.6237 23.9329C51.6237 24.5215 51.1431 25.0042 50.5543 25.0042H45.6919C45.1032 25.0042 44.6226 24.5215 44.6226 23.9329Z" fill="#55A8EC"/>
<path fill-rule="evenodd" clip-rule="evenodd" d="M41.1855 57.6417C41.1855 62.9677 45.5109 67.3008 50.8275 67.3008C56.1441 67.3008 60.4695 62.9677 60.4695 57.6417C60.4695 52.3156 56.1441 47.9825 50.8275 47.9825C45.5109 47.9825 41.1855 52.3156 41.1855 57.6417ZM42.0859 57.6417C42.0859 52.8139 46.0076 48.8853 50.828 48.8853C55.6484 48.8853 59.5688 52.8127 59.5688 57.6417C59.5688 62.4706 55.6484 66.3993 50.828 66.3993C46.0076 66.3993 42.0859 62.4706 42.0859 57.6417Z" fill="#55A8EC"/>
<path fill-rule="evenodd" clip-rule="evenodd" d="M44.3374 57.6416C44.3374 61.2272 47.2486 64.1436 50.8279 64.1436C54.4071 64.1436 57.3183 61.2272 57.3183 57.6416C57.3183 54.056 54.4071 51.1396 50.8279 51.1396C47.2486 51.1396 44.3374 54.056 44.3374 57.6416ZM45.2373 57.6417C45.2373 54.5544 47.746 52.0424 50.8278 52.0424C53.9109 52.0424 56.4172 54.5544 56.4172 57.6417C56.4172 60.7302 53.9097 63.2421 50.8278 63.2421C47.7448 63.2421 45.2373 60.729 45.2373 57.6417Z" fill="#55A8EC"/>
<path fill-rule="evenodd" clip-rule="evenodd" d="M47.1055 57.6416C47.1055 59.6974 48.7755 61.3704 50.8277 61.3704C52.8798 61.3704 54.5499 59.6974 54.5499 57.6416C54.5499 55.5858 52.881 53.9127 50.8277 53.9127C48.7743 53.9127 47.1055 55.5858 47.1055 57.6416ZM48.0073 57.6416C48.0073 56.0829 49.2725 54.8155 50.8284 54.8155C52.3844 54.8155 53.6495 56.0829 53.6495 57.6416C53.6495 59.2003 52.3844 60.4677 50.8284 60.4677C49.2725 60.4677 48.0073 59.2003 48.0073 57.6416Z" fill="#55A8EC"/>
<path d="M50.3411 58.4516L50.4444 56.1563C50.4564 55.9072 50.6643 55.7158 50.9142 55.7254C51.1629 55.7362 51.3551 55.9481 51.3443 56.196L51.3155 56.8315L66.2452 48.0451C66.4603 47.9187 66.7354 47.9909 66.8616 48.2051C66.9877 48.4194 66.9156 48.6962 66.7018 48.8226L50.3411 58.4516Z" fill="#FDC510"/>
<path d="M52.3659 58.5396H50.828C50.5793 58.5396 50.3774 58.3374 50.3774 58.0882C50.3774 57.8391 50.5793 57.6368 50.828 57.6368H52.3659C52.6146 57.6368 52.8165 57.8391 52.8165 58.0882C52.8165 58.3374 52.6146 58.5396 52.3659 58.5396Z" fill="#FDC510"/>
<path d="M78.1704 38.3898C78.0971 38.3898 78.0226 38.3718 77.9541 38.3345C77.7354 38.2141 77.6561 37.9409 77.7763 37.7218L81.4721 30.9803L84.4241 33.81L86.3922 30.683L88.1187 31.7302L92.2482 21.4656L95.1258 26.5798L97.834 22.5621L100.118 25.369L104.738 16.8461C104.884 16.5753 105.078 16.2792 105.282 15.9651C105.45 15.7063 105.629 15.4318 105.785 15.1646C105.611 15.2405 105.433 15.3235 105.264 15.403C104.95 15.5498 104.655 15.6882 104.388 15.7785C104.154 15.8579 103.898 15.7303 103.817 15.4944C103.738 15.2585 103.865 15.0021 104.101 14.9227C104.32 14.8493 104.592 14.7217 104.882 14.5857C105.456 14.3173 106.049 14.0392 106.574 13.9983L107.214 13.949L107.042 14.5688C106.875 15.1695 106.449 15.8242 106.035 16.4585C105.841 16.757 105.657 17.0387 105.528 17.277L100.268 26.9819L97.9013 24.0727L95.0561 28.2938L92.3816 23.5419L88.5561 33.0493L86.6805 31.9119L84.5971 35.2231L81.6967 32.4427L78.5656 38.1551C78.4839 38.3056 78.3302 38.3898 78.1704 38.3898Z" fill="#195A8F"/>
<path d="M106.872 17.1529C106.623 17.1529 106.421 16.9507 106.421 16.7016V14.446C106.421 14.1968 106.623 13.9946 106.872 13.9946C107.121 13.9946 107.322 14.1968 107.322 14.446V16.7016C107.322 16.9507 107.121 17.1529 106.872 17.1529Z" fill="#195A8F"/>
<path d="M77.7208 41.0197C77.4733 41.0197 77.2703 40.8163 77.2703 40.5683V11.78C77.2703 11.532 77.4733 11.3286 77.7208 11.3286C77.9683 11.3286 78.1714 11.532 78.1714 11.78V40.5695C78.1714 40.8175 77.9683 41.0197 77.7208 41.0197Z" fill="#55A8EC"/>
<path d="M74.9829 38.3897C74.9829 38.1418 75.186 37.9384 75.4335 37.9384H104.172C104.419 37.9384 104.623 38.1418 104.623 38.3897C104.623 38.6377 104.419 38.8411 104.172 38.8411H75.4323C75.1848 38.8399 74.9829 38.6377 74.9829 38.3897Z" fill="#55A8EC"/>
<path d="M94.3974 18.4167H86.0314C85.206 18.4167 84.5308 17.7403 84.5308 16.9134V16.9134C84.5308 16.0865 85.206 15.41 86.0314 15.41H94.3974C95.2228 15.41 95.8981 16.0865 95.8981 16.9134V16.9134C95.8981 17.7403 95.2228 18.4167 94.3974 18.4167Z" fill="#E3342F"/>
<rect x="100.081" y="25.0042" width="0.337619" height="0.450559" fill="#4B369D"/>
<path fill-rule="evenodd" clip-rule="evenodd" d="M100.081 19.0619H100.419V18.2134H100.081V19.0619ZM100.419 20.759H100.081V19.9104H100.419V20.759ZM100.081 22.4573H100.419V21.6088H100.081V22.4573ZM100.081 24.1556H100.419V23.3071H100.081V24.1556Z" fill="#4B369D"/>
<path d="M100.418 17.3635H100.081V17.0819H99.7997V16.7437H100.418V17.3635Z" fill="#4B369D"/>
<rect x="97.4993" y="16.7437" width="1.15103" height="0.337619" fill="#4B369D"/>
<rect x="95.8984" y="16.7437" width="0.450559" height="0.337619" fill="#4B369D"/>
<path d="M100.458 27.4692H100.042C99.4797 27.4692 99.0195 27.0082 99.0195 26.4449V26.0284C99.0195 25.4651 99.4797 25.0042 100.042 25.0042H100.458C101.02 25.0042 101.48 25.4651 101.48 26.0284V26.4449C101.48 27.0082 101.02 27.4692 100.458 27.4692Z" fill="#E3342F"/>
<path d="M132.04 48.1089C132.04 48.1089 133.373 54.4556 133.26 57.0494C133.147 59.6432 130.897 63.5129 130.897 63.5129L129.443 48.1101H132.04V48.1089Z" fill="#EAC2AB"/>
<path d="M124.088 36.4709L124.381 41.9378L128.653 43.5879C128.653 43.5879 126.084 39.823 126.52 36.4709C126.954 33.1188 124.088 36.4709 124.088 36.4709Z" fill="#D4A79A"/>
<path d="M120.271 25.2858C120.271 25.2858 119.341 26.5207 120.248 30.3061C121.155 34.0927 122.628 37.3257 123.767 37.097C126.917 36.4663 128.022 34.2371 129.114 32.3234C130.453 29.9763 127.795 24.2519 127.795 24.2519L125.284 22.8942L120.271 25.2858Z" fill="#EAC2AB"/>
<path d="M116.918 24.2663C116.643 23.378 117.126 22.2418 117.771 21.6929C118.019 21.4811 118.333 21.3463 118.647 21.3776C118.882 21.4004 119.113 21.5148 119.347 21.4763C120.049 21.3595 120.133 20.3232 120.784 20.1126C121.269 19.9561 121.736 20.3966 122.231 20.5134C122.604 20.6012 122.991 20.5001 123.367 20.4219C124.426 20.1992 125.407 19.6901 126.492 19.5589C127.408 19.4482 128.363 19.5517 129.191 19.997C130.056 20.4616 130.676 21.3162 131.006 22.3032C131.203 22.8929 131.267 23.5501 131.108 24.1543C131.238 23.6572 132.131 24.1916 132.276 24.3866C132.843 25.1546 132.941 26.8192 132.639 27.7123C132.4 28.42 132.007 29.0459 131.789 29.7632C131.529 30.619 131.421 31.5687 130.947 32.327C130.406 33.1972 127.487 36.0534 126.561 35.8127C126.847 35.0255 125.453 34.3105 125.505 33.4644C125.556 32.6182 126.084 28.2142 121.929 27.3897C120.277 27.0623 122.396 26.5255 120.742 26.5917C119.956 26.623 119.169 26.4701 118.433 26.1704C117.863 25.9393 117.309 25.0884 116.996 24.4661C116.965 24.4011 116.939 24.3349 116.918 24.2663Z" fill="#195A90"/>
<path d="M125.245 29.9738C125.245 29.9738 126.972 28.4922 126.846 30.4962C126.719 32.5002 125.103 33.0816 125.103 33.0816L125.245 29.9738Z" fill="#EAC2AB"/>
<path d="M129.861 105.672L128.799 112.889L131.171 113.493L131.833 105.897C131.832 105.897 130.585 105.381 129.861 105.672Z" fill="#D4A79A"/>
<path d="M119.502 116.357C119.502 116.357 121.278 116.829 124.621 116.842C127.963 116.855 131.682 116.718 132.321 116.176C132.962 115.635 133.101 111.402 131.992 111.48C130.883 111.558 130.565 113.195 128.511 111.899C126.751 110.788 125.576 113.197 122.704 114.021C119.833 114.844 118.67 115.174 119.502 116.357Z" fill="#F3AA02"/>
<path d="M123.951 107.898C124.043 107.607 124.32 107.372 124.558 107.134C126.738 104.947 125.955 101.901 125.394 99.2305C124.065 92.8946 124.557 86.3806 124.461 79.9568C124.367 73.6871 123.355 67.4596 121.624 61.4643C120.996 59.2857 120.101 55.912 123.276 56.3393C124.78 56.5415 126.239 56.379 127.698 55.9914C128.465 55.788 127.652 55.5665 128.465 55.788C131.235 56.5415 132.818 64.5348 132.399 66.5195C131.565 70.471 131.283 71.7361 131.391 75.8513C131.545 81.6876 131.067 87.5746 132.102 93.3027C132.611 96.1095 133.167 98.9067 133.71 101.705C134.027 103.337 135.539 106.859 134.798 108.408C133.782 110.536 128.491 109.165 126.76 109.24C125.462 109.298 123.64 108.891 123.951 107.898Z" fill="#195A8F"/>
<path d="M124.488 105.922L122.925 113.046L125.249 113.814L126.44 106.283C126.44 106.284 125.231 105.682 124.488 105.922Z" fill="#EAC2AB"/>
<path d="M113.409 115.854C113.409 115.854 115.148 116.449 118.481 116.696C121.814 116.944 125.534 117.068 126.209 116.572C126.885 116.077 127.32 111.865 126.209 111.865C125.097 111.865 124.666 113.476 122.707 112.038C121.028 110.807 119.687 113.129 116.765 113.748C113.844 114.366 112.661 114.614 113.409 115.854Z" fill="#FDC510"/>
<path d="M118.438 107.917C118.55 107.656 118.843 107.461 119.097 107.258C121.425 105.399 120.856 102.565 120.484 100.088C119.601 94.2115 120.546 88.2885 120.9 82.4111C121.243 76.6747 120.67 70.9177 119.362 65.3256C118.886 63.2939 118.23 60.1525 121.367 60.7471C122.853 61.0287 124.32 60.9733 125.802 60.7134C126.582 60.5761 125.786 60.3222 126.582 60.5761C129.291 61.4427 130.345 64.3375 129.788 66.1237C128.681 69.6828 128.278 75.3338 128.099 79.1024C127.844 84.4465 126.956 89.7966 127.59 95.0998C127.9 97.6984 128.26 100.29 128.606 102.884C128.808 104.397 130.071 107.711 129.224 109.081C128.061 110.961 122.879 109.368 121.147 109.325C119.847 109.293 118.059 108.804 118.438 107.917Z" fill="#83BFF1"/>
<path d="M115.415 46.939C114.292 47.7887 113.098 48.541 111.849 49.1874C110.877 49.6893 108.24 51.3828 107.219 50.3465C106.921 50.0431 106.791 49.6158 106.685 49.2042C106.051 46.7741 105.132 44.4318 104.234 42.0908C103.43 40.0001 102.465 37.795 102.539 35.5081C102.616 33.1731 102.477 30.0232 102.255 29.4515C102.032 28.8798 100.21 25.5144 100.176 26.5616C100.142 27.6087 101.899 30.4878 101.098 30.3807C100.296 30.2736 98.5841 30.9428 98.7859 32.1596C98.9878 33.3753 100.27 35.998 100.27 35.998C100.831 38.3607 101.422 40.7186 102.036 43.0681C102.495 44.8254 102.966 46.5827 103.491 48.3219C104.002 50.013 104.475 51.8486 105.96 52.9704C106.153 53.1172 106.359 53.2472 106.578 53.3519C108.337 54.1944 110.404 53.3122 112.115 52.3758C115.786 50.3669 119.265 48.0487 122.771 45.7703C122.085 45.095 121.399 44.421 120.714 43.7458C120.55 43.5845 120.37 43.4136 120.142 43.3799C119.877 43.3389 119.623 43.493 119.404 43.6483C118.309 44.4174 117.351 45.3598 116.324 46.218C116.026 46.4648 115.722 46.7055 115.415 46.939Z" fill="#EAC2AB"/>
<path d="M127.33 48.8106C127.33 48.8106 123.722 42.7455 126.475 41.6117C129.229 40.4779 132.041 48.1101 132.041 48.1101L127.507 49.9011L127.33 48.8106Z" fill="#C61F1B"/>
<path d="M118.991 61.9626C118.991 61.7123 118.574 55.1983 119.49 51.0229C120.407 46.8475 119.49 43.2559 122.659 40.7511C125.827 38.2464 128.41 41.5864 129.244 43.3401C130.078 45.0938 130.777 50.6618 130.895 53.6119C131.015 56.627 132.597 62.9978 132.661 63.1326C133.918 65.7505 133.091 65.5579 132.982 65.807C132.303 67.3573 127.888 67.6582 126.827 67.1093C124.501 65.9057 124.007 65.2509 121.499 65.6373C120.416 65.8046 119.218 65.47 118.896 65.1366C118.574 64.8032 118.991 61.9626 118.991 61.9626Z" fill="#E3342F"/>
<path d="M117.223 44.0994C117.223 44.0994 123.076 37.849 125.319 40.686C127.563 43.5229 119.619 49.3689 119.619 49.3689L116.013 44.6724L117.223 44.0994Z" fill="#C61F1B"/>
</svg>
